<svg width="13" height="10" viewBox="0 0 13 10" fill="none" xmlns="http://www.w3.org/2000/svg">
<g clip-path="url(#clip0_1039_48711)">
<path d="M10.7817 8.42174C10.9362 8.42174 11.0134 8.42174 11.0542 8.38984C11.0896 8.36208 11.1107 8.31987 11.1117 8.27485C11.1127 8.22313 11.0664 8.16133 10.9737 8.03774L6.73963 2.39233C6.67449 2.30548 6.64193 2.26206 6.602 2.24653C6.56703 2.23293 6.52823 2.23293 6.49326 2.24653C6.45333 2.26206 6.42077 2.30548 6.35563 2.39233L2.12158 8.03774" fill="white"/>
<path d="M2.12139 8.03774L6.35544 2.39233C6.42058 2.30548 6.45314 2.26206 6.49307 2.24653C6.52804 2.23293 6.56684 2.23293 6.60181 2.24653C6.64174 2.26206 6.6743 2.30548 6.73944 2.39233L10.9735 8.03774C11.0662 8.16133 11.1125 8.22313 11.1115 8.27485C11.1105 8.31987 11.0894 8.36208 11.054 8.38984C11.0132 8.42174 10.936 8.42174 10.7815 8.42174H2.31339C2.15889 8.42174 2.08165 8.42174 2.04091 8.38984C2.00546 8.36208 1.98435 8.31987 1.98342 8.27485C1.98234 8.22313 2.02869 8.16133 2.12139 8.03774Z" stroke="white" stroke-width="2.5" stroke-linecap="round" stroke-linejoin="round"/>
</g>
<defs>
<clipPath id="clip0_1039_48711">
<rect width="13" height="10" fill="white"/>
</clipPath>
</defs>
</svg>
