<svg width="102" height="24" viewBox="0 0 102 24" fill="none" xmlns="http://www.w3.org/2000/svg">
<g id="Logo">
<g id="Group">
<path id="Vector" d="M101.311 14.0725H94.4047C94.5438 15.6729 95.6223 16.4557 96.7704 16.4557C97.5184 16.4557 98.2491 16.1947 98.7361 15.3772H101.206C100.702 16.7688 99.345 18.317 96.7878 18.317C93.7784 18.317 92.0215 16.073 92.0215 13.3767C92.0215 10.5935 93.9524 8.52344 96.7182 8.52344C99.6059 8.52344 101.398 10.7674 101.311 14.0725ZM96.7009 10.2804C95.7963 10.2804 94.6308 10.837 94.4394 12.42H98.8753C98.8231 10.837 97.7098 10.2804 96.7009 10.2804Z" fill="#1F212F"/>
<path id="Vector_2" d="M88.213 18.0908V12.6461C88.213 11.6198 88.1261 10.4543 86.717 10.4543C85.1167 10.4543 84.8557 11.7937 84.8557 13.2202V18.0908H82.4552V12.6461C82.4552 11.6198 82.3682 10.4543 80.9591 10.4543C79.3588 10.4543 79.0978 11.7937 79.0978 13.2202V18.0908H76.6973V8.73218H79.0978V9.96724C79.6371 9.04529 80.5764 8.52344 81.7072 8.52344C83.2901 8.52344 84.0033 9.3758 84.3687 10.0542C85.1167 9.0105 86.0386 8.52344 87.4476 8.52344C89.796 8.52344 90.6136 9.98464 90.6136 12.1938V18.0908H88.213Z" fill="#1F212F"/>
<path id="Vector_3" d="M72.3643 14.507V13.8112C69.668 14.0896 68.6069 14.4027 68.6069 15.4464C68.6069 16.1248 69.1287 16.6814 70.2246 16.6814C71.738 16.6814 72.3643 15.8813 72.3643 14.507ZM72.573 16.925C71.8946 17.8991 70.9205 18.3166 69.5114 18.3166C67.7197 18.3166 66.1367 17.2729 66.1367 15.5682C66.1367 13.359 68.6069 12.6979 72.2947 12.2804V12.1239C72.2947 10.6801 71.5119 10.1756 70.5378 10.1756C69.6158 10.1756 68.8504 10.6453 68.7982 11.689H66.5542C66.7456 9.84511 68.2416 8.48828 70.6595 8.48828C72.8688 8.48828 74.6953 9.46242 74.6953 12.611C74.6953 12.8893 74.6605 14.1591 74.6605 14.9941C74.6605 16.4727 74.7475 17.3077 74.9388 18.0905H72.7296C72.66 17.7947 72.6252 17.3947 72.573 16.925Z" fill="#1F212F"/>
<path id="Vector_4" d="M65.6293 8.78656V11.0479C65.2814 10.9958 64.9856 10.9958 64.6377 10.9958C63.4548 10.9958 62.6721 11.4306 62.6721 13.1876V18.093H60.2715V8.73438H62.6373V10.3695C63.1765 9.20405 64.0115 8.75177 65.1074 8.75177C65.264 8.75177 65.4727 8.76917 65.6293 8.78656Z" fill="#1F212F"/>
<path id="Vector_5" d="M54.7693 8.73338V8.21152C54.7693 5.84577 55.8826 5.48047 58.231 5.48047H59.0486V7.25478H58.5789C57.396 7.25478 57.1699 7.39395 57.1699 8.28111V8.73338H59.0486V10.3859H57.1699V18.092H54.7693V10.3859H53.4473V8.73338H54.7693Z" fill="#1F212F"/>
<path id="Vector_6" d="M48.064 10.4021C46.7419 10.4021 45.8025 11.4632 45.8025 13.4289C45.8025 15.3946 46.7419 16.4383 48.064 16.4383C49.386 16.4383 50.3254 15.3946 50.3254 13.4289C50.3254 11.4632 49.386 10.4021 48.064 10.4021ZM48.064 18.317C45.6982 18.317 43.3672 16.6992 43.3672 13.4289C43.3672 10.1412 45.6982 8.52344 48.064 8.52344C50.4297 8.52344 52.7607 10.1412 52.7607 13.4289C52.7607 16.6992 50.4297 18.317 48.064 18.317Z" fill="#1F212F"/>
<path id="Vector_7" d="M39.8489 13.9515H42.2147C41.8842 16.5086 39.7619 18.3177 36.7525 18.3177C32.9951 18.3177 30.8555 15.7606 30.8555 11.7249C30.8555 7.74143 33.1517 5.25391 36.8221 5.25391C39.7793 5.25391 41.7972 6.94125 42.2147 9.56793H39.8489C39.3792 7.81101 38.1963 7.23697 36.8047 7.23697C34.9086 7.23697 33.43 8.80254 33.43 11.7249C33.43 14.7343 34.9086 16.3347 36.7177 16.3347C38.2137 16.3347 39.4314 15.6737 39.8489 13.9515Z" fill="#1F212F"/>
</g>
<g id="Group_2">
<rect id="Rounded rectangle" width="14.9799" height="12.2849" rx="2.49648" transform="matrix(0.832103 -0.554621 0 1 0 8.30859)" fill="#1F212F"/>
<rect id="Rounded rectangle_2" opacity="0.4" width="14.9799" height="12.2849" rx="2.49648" transform="matrix(0.832103 -0.554621 0 1 8.73828 11.7148)" fill="#1F212F"/>
</g>
</g>
</svg>
